
<svg width="15px" height="53px" viewBox="0 0 15 53" version="1.1" xmlns="http://www.w3.org/2000/svg" xmlns:xlink="http://www.w3.org/1999/xlink">
    <g id="Landing" stroke="none" stroke-width="1" fill="none" fill-rule="evenodd">
        <g id="Artboard" transform="translate(-807.000000, -71.000000)" fill="#FFFFFF" fill-rule="nonzero">
            <g id="Group" transform="translate(776.328432, 61.636632)">
                <path d="M36.146,62.3208421 L36.146,45.5073684 L35.3215676,45.5073684 C35.3215676,45.5073684 35.2227027,45.6757895 35.0601622,45.6757895 C35.0601622,45.6757895 35.2562162,45.9115789 34.8607568,45.9435789 C34.8607568,45.9435789 34.5993514,46.112 34.7300541,46.2130526 L34.105027,46.2130526 C34.105027,46.2130526 33.7095676,47.0854737 32.916973,46.4791579 C32.916973,46.4791579 32.5533514,46.4791579 32.8516216,45.9098947 C32.8516216,45.9098947 33.1147027,45.8425263 32.916973,45.4063158 C32.916973,45.4063158 33.0811892,44.9364211 33.3459459,44.8707368 C33.3459459,44.8707368 34.038,43.9629474 34.5675135,43.9629474 C34.5675135,43.9629474 35.3902703,44.0303158 35.3902703,43.7288421 C35.3902703,43.7288421 35.7857297,43.3583158 35.9516216,43.4256842 C35.9516216,43.4256842 36.3470811,43.0568421 36.016973,42.7553684 L35.1925405,42.688 C35.1925405,42.688 34.9948108,43.3263158 34.2692432,43.0905263 C34.2692432,43.0905263 33.5118378,42.6206316 34.466973,41.8829474 C34.466973,41.8829474 34.7954054,42.016 34.5993514,41.3456842 C34.4016216,40.672 34.5004865,41.2783158 34.5004865,41.2783158 C34.5004865,41.2783158 34.2357297,40.7090526 35.024973,40.3738947 C35.024973,40.3738947 36.2448649,40.3048421 35.8845946,40.1717895 C35.8845946,40.1717895 36.3118919,39.6665263 35.6516757,39.7692632 C35.6516757,39.7692632 35.4556216,39.7018947 35.1238378,39.8703158 C35.1238378,39.8703158 34.2005405,40.0404211 34.1687027,39.7692632 C34.1687027,39.7692632 33.6743784,39.5688421 33.7732432,39.3667368 L33.6743784,38.7957895 C33.6743784,38.7957895 33.9692973,38.56 33.7078919,38.1911579 C33.7078919,38.1911579 33.2789189,37.9250526 33.3107568,37.5208421 C33.3107568,37.5208421 33.3777838,37.0863158 33.6408649,37.0863158 C33.6408649,37.0863158 35.024973,37.12 35.024973,36.8168421 C35.024973,36.8168421 35.3534054,36.7174737 35.3215676,36.0454737 C35.3215676,36.0454737 35.4237838,35.7103158 35.1255135,35.2387368 C35.1255135,35.2387368 35.159027,34.8682105 35.2562162,34.9052632 L35.2227027,34.7031579 L35.024973,34.6677895 C35.024973,34.6677895 35.0601622,34.9709474 34.6965405,34.8362105 C34.6965405,34.8362105 34.4334595,35.0046316 34.3999459,35.2387368 C34.3999459,35.2387368 34.0363243,35.3061053 34.0715135,35.2050526 C34.105027,35.104 34.0363243,35.104 34.0363243,35.104 C34.0363243,35.104 34.1351892,35.5402105 33.7078919,35.5048421 C33.7078919,35.5048421 33.6408649,36.0084211 33.1147027,35.6395789 C33.1147027,35.6395789 32.8516216,35.4711579 32.6187027,35.7406316 L32.3204324,35.6075789 C32.3204324,35.6075789 32.059027,35.5402105 32.2550811,34.8682105 C32.2550811,34.8682105 32.4226486,34.5330526 32.6857297,34.4336842 C32.6857297,34.4336842 32.7510811,33.8290526 33.2789189,33.9301053 C33.2789189,33.9301053 33.474973,33.6926316 33.1800541,33.4922105 C33.1800541,33.4922105 32.8817838,33.4922105 33.0778378,33.0223158 L33.0124865,32.2846316 C33.0124865,32.2846316 33.2102162,31.8147368 33.4732973,31.8821053 L33.8369189,31.7136842 C33.8369189,31.7136842 33.9676216,31.5115789 34.2658919,31.5789474 C34.2658919,31.5789474 34.2977297,31.2774737 34.2005405,31.2101053 C34.2005405,31.2101053 33.4732973,31.1764211 33.6073514,30.7738947 C33.6073514,30.7738947 33.8385946,29.9014737 33.2454054,30.304 C33.2454054,30.304 32.9471351,30.2703158 32.7158919,30.4724211 C32.4846486,30.6745263 32.617027,30.4724211 32.617027,30.4724211 C32.617027,30.4724211 32.5835135,30.8749474 32.1880541,30.4387368 C32.1880541,30.4387368 31.8931351,30.4387368 31.9903243,30.1709474 C31.9903243,30.1709474 31.9903243,29.6673684 32.2215676,29.6673684 C32.2215676,29.6673684 32.4846486,29.3658947 33.2454054,29.4652632 L33.4414595,29.2311579 C33.4414595,29.2311579 33.9676216,28.4917895 34.3329189,28.4917895 C34.3329189,28.4917895 34.5306486,28.224 34.7267027,28.2576842 C34.7267027,28.2576842 35.1221622,27.3852632 35.5192973,27.4189474 C35.5192973,27.4189474 35.7153514,27.2505263 34.9579459,27.2505263 L34.4636216,27.2168421 L34.3630811,27.2168421 C34.3630811,27.2168421 34.4636216,27.4509474 34.0681622,27.3515789 C34.0681622,27.3515789 34.2642162,27.6884211 33.2085405,27.4863158 C33.2085405,27.4863158 32.9454595,27.3178947 32.6471892,27.7557895 C32.6471892,27.7557895 32.2852432,28.0235789 32.1863784,28.0572632 C32.1863784,28.0572632 31.8579459,28.3587368 31.6602162,27.8905263 L31.6602162,26.8496842 C31.6602162,26.8496842 31.9886486,26.4791579 31.9568108,26.3797895 C31.9568108,26.3797895 32.6488649,26.2787368 32.5181622,26.2113684 C32.5181622,26.2113684 33.2772432,26.144 33.4079459,26.2787368 L33.9357838,26.2113684 C33.9357838,26.2113684 34.3630811,26.2450526 34.4636216,25.6741053 C34.4636216,25.6741053 34.7267027,25.2378947 35.1221622,25.2715789 C35.1221622,25.2715789 35.582973,25.2042105 35.4204324,25.0694737 C35.4204324,25.0694737 35.5511351,24.8353684 35.6818378,24.9010526 C35.6818378,24.9010526 36.275027,24.6332632 35.8142162,24.5322105 C35.8142162,24.5322105 35.1875135,24.5995789 35.7807027,23.9275789 C35.7807027,23.9275789 36.0772973,23.2572632 35.7136757,23.1208421 C35.7136757,23.1208421 35.4824324,22.9187368 35.3182162,23.7928421 C35.3182162,23.7928421 35.2863784,24.3621053 34.725027,24.4294737 C34.725027,24.4294737 34.1653514,25.2008421 33.536973,24.3621053 L33.4062703,23.4223158 C33.4062703,23.4223158 33.7045405,23.3886316 33.671027,22.9861053 L33.7045405,22.1810526 C33.7045405,22.1810526 33.6375135,21.6101053 34.1988649,21.6101053 C34.1988649,21.6101053 34.6278378,21.1402105 33.9357838,21.1738947 C33.9357838,21.1738947 33.5386486,21.4753684 32.9454595,21.1065263 C32.3522703,20.7376842 32.8465946,21.0728421 32.8465946,21.0728421 C32.8465946,21.0728421 32.2517297,21.0054737 32.2852432,20.6029474 L32.3841081,20.2341053 C32.3841081,20.2341053 32.2182162,19.6968421 32.8130811,19.7305263 C32.8130811,19.7305263 33.3744324,19.6631579 33.5386486,19.8989474 C33.5386486,19.8989474 34.0028108,20.0673684 34.0346486,19.9663158 C34.0346486,19.9663158 34.4301081,19.7322105 34.6278378,19.8989474 C34.6278378,19.8989474 34.0028108,19.4290526 34.6278378,19.0922105 C34.6278378,19.0922105 35.0886486,18.8244211 33.9005946,18.8581053 C33.9005946,18.8581053 33.6375135,19.0922105 33.536973,18.4218947 C33.536973,18.4218947 33.5721622,17.8846316 34.3312432,18.0530526 C34.3312432,18.0530526 34.6278378,18.2871579 34.8892432,17.952 C34.8892432,17.952 35.0216216,17.6842105 35.2193514,17.7178947 C35.2193514,17.7178947 35.3852432,17.2143158 35.6148108,17.2816842 C35.6148108,17.2816842 35.9784324,17.1486316 35.8795676,16.7781053 C35.8795676,16.7781053 35.6466486,16.7781053 35.5159459,16.9128421 C35.5159459,16.9128421 35.2176757,16.8471579 34.8255676,16.4092632 C34.8255676,16.4092632 34.2307027,16.2425263 34.7233514,15.7389474 L35.4807568,15.6715789 L35.6131351,15.5031579 L35.7438378,15.5368421 C35.7438378,15.5368421 35.8778919,15.0332632 35.3483784,14.8665263 C35.3483784,14.8665263 35.1523243,14.7991579 34.8875676,14.464 L34.4602703,14.3292632 C34.4602703,14.3292632 33.8670811,13.4231579 34.658,13.6252632 C34.658,13.6252632 34.9864324,13.6252632 35.1188108,13.8273684 C35.1188108,13.8273684 35.4489189,13.9621053 35.4170811,14.0968421 C35.4170811,14.0968421 35.6131351,13.9284211 35.7438378,13.9284211 C35.7438378,13.9284211 35.3483784,13.7936842 35.3818919,13.5258947 C35.3818919,13.5258947 35.5477838,13.2564211 35.6784865,13.2901053 L35.7438378,13.1890526 L35.9432432,13.2564211 C35.9432432,13.2564211 36.4694054,12.9549474 35.9080541,12.7528421 C35.9080541,12.7528421 35.7421622,12.6517895 35.3467027,12.5187368 C35.3467027,12.5187368 34.7551892,12.7865263 34.787027,12.0825263 C34.787027,12.0825263 35.1506486,11.2437895 35.3802162,11.1090526 C35.3802162,11.1090526 35.6768108,10.9069474 35.841027,11.1090526 L35.9734054,11.0416842 C35.9734054,11.0416842 35.841027,10.7065263 35.8745405,10.3713684 C35.8745405,10.3713684 36.0705946,9.46526316 36.6319459,10.1018947 C36.6319459,10.1018947 36.9603784,10.2029474 37.0609189,10.7385263 C37.1614595,11.2757895 37.0927568,10.8395789 37.0927568,10.8395789 C37.0927568,10.8395789 37.4245405,11.0736842 37.391027,11.2757895 C37.391027,11.2757895 37.8551892,11.6463158 37.8216757,11.3768421 L37.9188649,11.7456842 L38.0529189,11.8130526 L38.0194054,12.0808421 C38.0194054,12.0808421 38.3143243,11.8787368 38.248973,12.5507368 C38.248973,12.5507368 38.2824865,12.9869474 38.6444324,12.9869474 C38.6444324,12.9869474 39.0080541,12.9532632 38.941027,13.2547368 C38.941027,13.2547368 39.2694595,13.3574737 38.7751351,13.8930526 C38.7751351,13.8930526 38.5455676,14.0951579 38.7751351,14.2618947 C38.7751351,14.2618947 40.3268108,15.1343158 39.0398919,15.9393684 L38.3813514,16.0404211 L38.3478378,16.9465263 C38.3478378,16.9465263 39.0382162,16.7781053 39.4018378,17.2816842 C39.7637838,17.7852632 39.5007027,17.3827368 39.5007027,17.3827368 C39.5007027,17.3827368 39.8291351,17.8189474 39.9296757,17.7852632 C39.9296757,17.7852632 40.2932973,17.8526316 40.2597838,18.0530526 C40.2597838,18.0530526 41.0507027,18.1541053 40.8848108,18.4892632 C40.8848108,18.4892632 40.9535135,18.8917895 41.2149189,18.9254737 C41.2149189,18.9254737 41.6438919,18.9591579 41.6103784,19.1949474 C41.6103784,19.1949474 42.0711892,18.9591579 42.1365405,19.8652632 C42.1365405,19.8652632 42.3325946,20.8050526 41.1160541,20.8050526 C41.1160541,20.8050526 40.6870811,21.1738947 40.1894054,20.8387368 C40.1894054,20.8387368 39.6950811,20.5355789 39.7285946,20.0673684 C39.7285946,20.0673684 39.499027,19.8989474 39.4018378,19.4644211 C39.4018378,19.4644211 38.9041622,18.7924211 38.445027,19.1275789 C38.445027,19.1275789 38.0177297,19.2269474 37.8535135,19.4964211 L37.9155135,19.6311579 C37.9155135,19.6311579 38.8052973,19.7322105 38.9041622,20.1010526 C38.9041622,20.1010526 39.4018378,20.4698947 38.6092432,20.6383158 L38.5757297,20.8404211 C38.5757297,20.8404211 39.0047027,20.7056842 39.2007568,21.2412632 L40.0905405,21.4096842 C40.0905405,21.4096842 40.6200541,21.4096842 40.8831351,22.0143158 C41.1462162,22.6172632 40.9166486,22.1153684 40.9166486,22.1153684 L40.8831351,22.0143158 C40.8831351,22.0143158 41.478,22.3494737 41.2467568,22.7856842 C41.2467568,22.7856842 41.1814054,23.2892632 40.3234595,22.8867368 C40.3234595,22.8867368 40.2581081,22.6509474 39.6314054,22.5515789 L39.2359459,22.4842105 C39.2359459,22.4842105 38.9041622,22.1153684 38.5757297,22.6526316 C38.5757297,22.6526316 38.7399459,23.3246316 39.3331351,23.2572632 C39.3331351,23.2572632 39.860973,23.1225263 39.860973,23.3583158 C39.860973,23.3583158 40.9501622,23.1225263 41.1797297,23.6597895 C41.1797297,23.6597895 41.5751892,23.7608421 41.8734595,23.4593684 L43.0263243,23.4256842 L43.157027,23.6934737 L43.4217838,23.7608421 C43.4217838,23.7608421 43.7854054,24.2307368 43.5206486,24.5658947 C43.5206486,24.5658947 43.4871351,24.9010526 43.8842703,25.0357895 C43.8842703,25.0357895 44.7087027,25.4046316 44.1456757,26.0429474 C44.1456757,26.0429474 43.5206486,26.6795789 42.9274595,25.6404211 L42.7615676,25.5730526 L42.7615676,25.3709474 L42.4984865,25.4046316 C42.4984865,25.4046316 42.2354054,26.1103158 41.2785946,26.2770526 C41.2785946,26.2770526 40.6183784,26.2433684 40.418973,26.0749474 L40.057027,26.0412632 C40.057027,26.0412632 39.5291892,25.8054737 39.4956757,25.3035789 C39.4956757,25.3035789 39.6598919,24.6315789 39.8911351,24.5322105 L39.4956757,24.3637895 L39.4956757,24.2290526 L39.0013514,24.2627368 C39.0013514,24.2627368 38.8991351,24.5322105 38.6058919,24.4311579 C38.6058919,24.4311579 38.6058919,24.6989474 38.1450811,24.5658947 C38.1450811,24.5658947 38.3444865,24.9010526 38.1450811,25.0021053 C38.1450811,25.0021053 38.6712432,25.0694737 38.5405405,25.2378947 C38.5405405,25.2378947 39.1002162,24.9347368 39.3314595,25.5730526 L39.1990811,25.7397895 C39.1990811,25.7397895 39.3984865,26.4117895 38.8036216,26.4454737 C38.8036216,26.4454737 38.6394054,26.9490526 38.4768649,26.9490526 L39.4001622,26.9490526 C39.4001622,26.9490526 39.499027,26.5465263 40.6217297,26.7806316 C40.6217297,26.7806316 41.1462162,26.3444211 41.5768649,26.3444211 C41.5768649,26.3444211 41.906973,26.1086316 42.1700541,26.1423158 L42.3041081,26.0075789 L42.9626486,26.0412632 C42.9626486,26.0412632 43.3564324,26.2753684 43.3564324,26.6122105 C43.3564324,26.6122105 44.3132432,27.4846316 43.3916216,27.7861053 C43.3916216,27.7861053 42.9308108,28.1212632 42.599027,27.4172632 L42.2370811,27.3835789 C42.2370811,27.3835789 41.974,27.552 41.7410811,27.5183158 C41.7410811,27.5183158 41.6757297,27.9882105 41.2819459,27.9882105 C41.2819459,27.9882105 41.2819459,28.2896842 40.7524324,28.2223158 C40.7524324,28.2223158 40.8512973,28.5928421 40.3251351,28.3907368 C40.3251351,28.3907368 40.2597838,28.6922105 39.9296757,28.5574737 C39.9296757,28.5574737 39.8291351,28.8926316 40.2262703,28.928 C40.2262703,28.928 40.6887568,29.0290526 40.4893514,29.4635789 L41.6438919,29.5646316 C41.6438919,29.5646316 41.8432973,29.5983158 42.0393514,29.8661053 C42.0393514,29.8661053 43.4552973,29.7650526 43.3916216,30.5364211 L43.3564324,31.3077895 C43.3564324,31.3077895 44.3467568,31.9781053 43.8842703,32.6164211 C43.8842703,32.6164211 43.4234595,32.9852632 43.0263243,32.3806316 C43.0263243,32.3806316 42.8604324,32.0791579 42.5655135,31.9107368 C42.5655135,31.9107368 42.1047027,31.744 41.8751351,31.6412632 C41.8751351,31.6412632 41.6757297,31.5065263 41.7075676,31.8433684 C41.7075676,31.8433684 42.103027,31.8770526 42.0711892,32.0454737 L42.6325405,32.1465263 C42.6325405,32.1465263 43.0615135,32.5153684 43.0263243,32.7174737 C43.0263243,32.7174737 43.7854054,33.6892632 42.8285946,33.8593684 C42.8285946,33.8593684 42.5655135,34.1928421 42.0376757,33.792 L41.5768649,33.8256842 C41.5768649,33.8256842 41.5098378,34.0614737 41.2132432,33.9604211 C41.2132432,33.9604211 41.0825405,34.3612632 40.2229189,34.2635789 C40.2229189,34.2635789 40.0251892,34.6997895 39.4973514,34.7317895 C39.4973514,34.7317895 39.3314595,34.9675789 38.936,34.9675789 C38.936,34.9675789 39.6615676,35.168 39.5291892,35.5385263 C39.5291892,35.5385263 39.8928108,35.4711579 39.7252432,35.8736842 L39.8592973,36.2442105 L39.8241081,36.7124211 C39.8241081,36.7124211 39.8592973,36.8454737 39.4956757,36.9145263 C39.4956757,36.9145263 39.364973,37.3827368 39.561027,37.4501053 C39.561027,37.4501053 39.561027,37.4837895 39.426973,37.5848421 C39.426973,37.5848421 39.7252432,38.0547368 38.8706486,37.6842105 C38.8706486,37.6842105 38.4064865,37.4501053 38.7684324,38.3562105 L38.9343243,38.4892632 C38.9343243,38.4892632 39.2996216,37.6825263 39.99,37.6825263 C39.99,37.6825263 40.5178378,37.4821053 40.3854595,37.3473684 C40.3854595,37.3473684 40.9484865,37.0138947 41.1780541,37.4821053 C41.1780541,37.4821053 41.5735135,37.5141053 41.5416757,37.6825263 C41.5416757,37.6825263 42.1348649,37.5831579 42.0678378,37.7852632 C42.0678378,37.7852632 42.5286486,37.7852632 42.3979459,37.6825263 C42.3979459,37.6825263 43.1536757,37.5831579 43.0883243,37.952 C43.022973,38.3208421 43.0883243,38.0547368 43.0883243,38.0547368 C43.0883243,38.0547368 43.4184324,38.0884211 43.4184324,38.4555789 C43.4184324,38.4555789 44.3735676,38.4218947 44.1775135,38.8244211 C44.1775135,38.8244211 44.7371892,39.1275789 44.5042703,39.6311579 C44.5042703,39.6311579 44.8343784,39.6985263 44.8678919,40.2021053 C44.8678919,40.2021053 45.0672973,40.7073684 44.3417297,40.7393684 L42.9241081,40.7393684 C42.9241081,40.7393684 42.4951351,40.5389474 42.0661622,40.7056842 C42.0661622,40.7056842 42.6275135,41.1402105 42.3275676,41.4433684 C42.3275676,41.4433684 42.8905946,41.6437895 41.6036757,42.4825263 C41.6036757,42.4825263 40.7792432,42.9524211 40.0536757,42.5515789 C40.0536757,42.5515789 39.4604865,42.752 39.1622162,42.3494737 C39.1622162,42.3494737 38.8672973,42.4168421 38.5371892,42.0463158 C38.5371892,42.0463158 38.1082162,41.8122105 38.0428649,42.2484211 L38.5003243,42.2821053 C38.5003243,42.2821053 38.6678919,42.6509474 38.998,42.4168421 C38.998,42.4168421 40.0536757,42.8867368 40.0536757,42.72 C40.0536757,42.72 40.5798378,43.0214737 40.4491351,43.1882105 C40.4491351,43.1882105 41.0423243,43.456 41.0423243,43.6917895 C41.0423243,43.6917895 41.2082162,44.0623158 41.4042703,44.1296842 C41.4042703,44.1296842 41.9019459,44.7326316 40.9099459,45.0357895 C40.9099459,45.0357895 40.5815135,45.3372632 40.0201622,44.7326316 C40.0201622,44.7326316 39.7218919,44.9330526 39.6565405,44.5978947 L39.4604865,44.5978947 C39.4604865,44.5978947 39.3616216,44.9010526 38.8974595,44.6315789 C38.8974595,44.6315789 38.6025405,44.6315789 38.6025405,44.4631579 C38.6025405,44.4631579 38.372973,44.3637895 38.3042703,44.4985263 L37.944,44.4985263 C37.944,44.4985263 37.6792432,44.9010526 38.0747027,45.0694737 C38.0747027,45.0694737 38.4014595,45.2378947 38.3042703,45.3372632 C38.3042703,45.3372632 38.7650811,45.2362105 39.4236216,45.3035789 C40.0855135,45.3709474 39.5258378,45.3035789 39.5258378,45.3035789 C39.5258378,45.3035789 39.8559459,45.6724211 40.1525405,45.6724211 C40.1525405,45.6724211 40.7457297,45.9738947 40.0855135,46.5785263 C40.0855135,46.5785263 39.6263784,46.9473684 39.1303784,46.8126316 C39.1303784,46.8126316 38.8321081,46.6795789 38.7667568,46.4117895 C38.7667568,46.4117895 38.4031351,46.4774737 38.3411351,46.2113684 C38.2724324,45.9418947 38.3411351,46.1086316 38.3411351,46.1086316 C38.3411351,46.1086316 38.3059459,46.6122105 37.7781081,45.8745263 L37.2519459,45.9402105 L37.2519459,62.1170526 C37.2687027,62.1204211 37.0391351,62.3865263 36.146,62.3208421 Z" id="Shape"></path>
            </g>
        </g>
    </g>
</svg>