
<svg width="15px" height="59px" viewBox="0 0 15 59" version="1.1" xmlns="http://www.w3.org/2000/svg" xmlns:xlink="http://www.w3.org/1999/xlink">
    <g id="Landing" stroke="none" stroke-width="1" fill="none" fill-rule="evenodd">
        <g id="Artboard" transform="translate(-790.000000, -64.000000)" fill="#FFFFFF" fill-rule="nonzero">
            <g id="Group" transform="translate(776.328432, 61.636632)">
                <path d="M22.1457297,60.6922105 L22.0116757,37.5612632 C22.0116757,37.5612632 21.3548108,37.3018947 21.3866486,38.6728421 C21.3866486,38.6728421 21.2877838,38.9978947 20.6962703,38.8362105 C20.6962703,38.8362105 20.4633514,38.9002105 20.4633514,39.0972632 C20.4633514,39.2926316 19.406,39.0315789 19.4428649,38.1507368 C19.4428649,38.1507368 18.8798378,38.3444211 18.8144865,37.7263158 C18.8144865,37.7263158 18.8144865,37.3658947 19.4076757,37.1048421 C19.4076757,37.1048421 21.1570811,37.2682105 21.2894595,36.7141053 C21.2894595,36.7141053 21.5843784,36.1583158 20.4968649,36.4530526 L19.7712973,36.4193684 C19.7712973,36.4193684 19.5082162,36.224 19.3088108,36.4193684 C19.3088108,36.4193684 18.7156216,37.3658947 17.8593514,36.5170526 C17.8593514,36.5170526 16.6059459,36.224 17.8593514,35.7018947 C17.8593514,35.7018947 18.2531351,35.6362105 18.1224324,35.2774737 C18.1224324,35.2774737 18.6837838,34.688 19.0122162,34.7216842 C19.0122162,34.7216842 19.0775676,34.3309474 19.6070811,34.4589474 C19.6070811,34.4589474 20.0678919,34.0682105 21.2559459,34.2652632 C21.2559459,34.2652632 21.6178919,33.6757895 20.6610811,33.8391579 C20.6610811,33.8391579 20.2019459,34.3949474 19.7377838,34.0682105 C19.7377838,34.0682105 19.0775676,34.7890526 18.2883243,34.1995789 C18.2883243,34.1995789 17.3985405,34.3629474 17.4303784,33.6437895 C17.4303784,33.6437895 16.672973,34.1338947 16.8371892,32.5338947 C16.8371892,32.5338947 13.9014054,33.1873684 14.265027,31.7170526 C14.265027,31.7170526 14.2968649,29.9856842 17.1991351,29.6252632 C17.1991351,29.6252632 17.726973,29.5595789 17.8911892,29.2008421 C17.8911892,29.2008421 18.5815676,29.1671579 19.4428649,29.6572632 C19.4428649,29.6572632 20.0025405,29.6892632 20.3661622,30.8328421 C20.7281081,31.9764211 21.3212973,30.8985263 21.1905946,30.8008421 C21.1905946,30.8008421 20.3661622,30.3444211 20.6610811,29.4602105 C20.6610811,29.4602105 19.4747027,30.1153684 19.7059459,28.8404211 C19.7059459,28.8404211 19.3775135,28.7090526 19.2786486,28.384 C19.2786486,28.384 19.1781081,27.5014737 19.6405946,27.2067368 C19.6405946,27.2067368 19.8064865,27.4357895 19.8383243,26.5532632 C19.8383243,26.5532632 20.5957297,26.3242105 20.1030811,25.8677895 C20.1030811,25.8677895 19.5098919,25.4416842 19.3758378,26.1928421 C19.3758378,26.1928421 18.1877838,26.7166316 18.7491351,25.2126316 C18.7491351,25.2126316 17.9565405,26.4858947 17.2661622,25.6690526 L16.9360541,25.6690526 C16.9360541,25.6690526 15.4514054,26.3562105 16.0781081,24.4277895 C16.0781081,24.4277895 14.7593514,26.1591579 15.1212973,23.9713684 C15.1212973,23.9713684 16.0781081,22.5330526 18.1877838,23.3178947 C18.1877838,23.3178947 19.0122162,23.0888421 19.8718378,23.5469474 C19.8718378,23.5469474 20.1332432,23.808 20.7951351,23.808 C20.7951351,23.808 21.0565405,23.4812632 20.5622162,23.4155789 C20.5622162,23.4155789 19.1127568,23.5469474 19.7042703,22.4690526 C19.7042703,22.4690526 20.0678919,21.8812632 19.9371892,21.5545263 C19.9371892,21.5545263 19.0474054,21.7835789 18.6485946,20.8690526 C18.6485946,20.8690526 18.3855135,20.4446316 18.0872432,20.5423158 C18.0872432,20.5423158 17.0332432,20.8050526 16.7031351,20.2475789 C16.7031351,20.2475789 16.3093514,20.2155789 16.1434595,19.9545263 C16.1434595,19.9545263 14.3957297,20.4109474 15.3843784,19.04 C15.3843784,19.04 14.9235676,17.6353684 16.8371892,18.1911579 C16.8371892,18.1911579 17.2963243,17.8324211 16.5389189,17.5056842 C16.5389189,17.5056842 15.4514054,18.4522105 14.9218919,18.0277895 C14.9218919,18.0277895 14.5582703,17.6370526 15.7798378,16.9178947 C15.7798378,16.9178947 14.0991351,16.6888421 15.6491351,15.872 C15.6491351,15.872 16.0781081,15.6109474 16.7366486,15.6429474 C16.7366486,15.6429474 17.3968649,15.6092632 17.6264324,16.1347368 C17.6264324,16.1347368 18.0537297,16.0353684 18.0537297,15.9056842 L18.5145405,15.9056842 C18.5145405,15.9056842 18.8128108,15.7086316 19.1764324,15.7086316 C19.5400541,15.7086316 19.5718919,15.3818947 20.0008649,16.0673684 C20.0008649,16.0673684 19.7025946,16.5911579 18.8781622,16.3284211 C18.8781622,16.3284211 18.2514595,16.3284211 18.8128108,16.6871579 C18.8128108,16.6871579 20.0008649,17.536 18.7474595,18.0581053 C18.7474595,18.0581053 18.6167568,18.5145263 19.5065405,18.5145263 C19.5065405,18.5145263 20.0997297,18.6458947 20.2974595,18.8092632 C20.2974595,18.8092632 19.9355135,18.4488421 20.0662162,18.0901053 C20.0662162,18.0901053 19.834973,17.3069474 20.956,17.5343158 C20.956,17.5343158 21.8139459,17.6976842 21.4821622,16.2610526 C21.4821622,16.2610526 18.9435135,16.2947368 21.0531892,15.1174737 C21.0531892,15.1174737 20.0327027,14.528 19.9338378,14.464 C19.9338378,14.464 19.0742162,14.6273684 18.91,14.8884211 C18.91,14.8884211 17.8895135,15.4122105 18.0202162,14.496 C18.0202162,14.496 18.481027,14.3663158 18.481027,14.2029474 C18.481027,14.2029474 18.5480541,13.9098947 18.977027,13.8105263 L19.9673514,13.8442105 C19.9673514,13.8442105 20.3628108,13.3541053 20.5605405,13.3541053 C20.5605405,13.3541053 21.4503243,13.0593684 21.023027,12.864 C21.023027,12.864 20.4935135,12.8303158 20.4935135,12.4395789 C20.4935135,12.4395789 20.7247568,11.9494737 21.3179459,12.0808421 C21.3179459,12.0808421 21.5491892,11.8197895 21.2844324,11.5250526 C21.2844324,11.5250526 20.9208108,11.4913684 20.9543243,11.3616842 C20.9543243,11.3616842 20.4935135,11.4273684 20.2941081,11.2623158 C20.2941081,11.2623158 19.7327568,11.9174737 19.4026486,11.7541053 C19.4026486,11.7541053 18.8094595,13.5174737 17.292973,12.768 C17.292973,12.768 17.2611351,12.6366316 17.0298919,12.5052632 C17.0298919,12.5052632 16.8338378,12.2122105 16.9963784,11.9494737 L17.1941081,11.9814737 C17.1941081,11.9814737 17.0617297,11.5250526 18.0503784,11.5907368 C18.0503784,11.5907368 18.3151351,11.5907368 18.2832973,10.9692632 C18.2832973,10.9692632 18.2832973,10.4791579 18.9435135,10.6745263 C18.9435135,10.6745263 19.2736216,10.8378947 19.4696757,9.98905263 C19.4696757,9.98905263 19.8332973,9.20589474 20.9208108,9.40126316 C20.9208108,9.40126316 20.46,8.77978947 20.4264865,8.22568421 C20.4264865,8.22568421 20.031027,7.47452632 20.5253514,7.11410526 C20.5253514,7.11410526 20.6929189,6.85305263 20.6258919,6.42694737 C20.6258919,6.42694737 19.9656757,6.36294737 20.2287568,5.64378947 C20.2287568,5.64378947 21.023027,4.95831579 21.2207568,5.97052632 C21.2207568,5.97052632 22.077027,6.68968421 22.1105405,5.93684211 C22.1105405,5.93684211 22.3736216,5.088 21.3514595,5.25136842 C21.3514595,5.25136842 20.7582703,5.31705263 21.0531892,4.33684211 C21.0531892,4.33684211 21.2861081,4.37052632 21.3179459,3.87873684 C21.3179459,3.87873684 22.5713514,3.61768421 22.438973,3.29094737 L22.7355676,3.22526316 C22.7355676,3.22526316 22.934973,2.90021053 23.0656757,3.19326316 C23.0656757,3.19326316 23.3287568,3.45431579 23.2298919,3.58568421 C23.2298919,3.58568421 24.0543243,3.52 24.0241622,3.71536842 C24.0241622,3.71536842 24.4832973,3.52 24.5821622,4.04210526 C24.5821622,4.04210526 26.2645405,4.20547368 24.9776216,4.89094737 C24.9776216,4.89094737 25.042973,5.44673684 24.4514595,5.38105263 C24.4514595,5.38105263 24.4514595,5.93684211 24.0241622,5.87115789 C24.0241622,5.87115789 23.1327027,6.62231579 24.1548649,6.29557895 L24.5168108,6.09852632 C24.5168108,6.09852632 25.7702162,5.02063158 25.9344324,5.54273684 C25.9344324,5.54273684 26.2980541,5.83578947 25.6395135,6.06484211 C25.6395135,6.06484211 24.6827027,6.65431579 24.484973,6.94736842 C24.484973,6.94736842 24.2537297,7.47115789 23.8247568,7.47115789 C23.8247568,7.47115789 22.8344324,8.05894737 23.4963243,8.12463158 C23.4963243,8.12463158 23.8599459,8.288 23.7945946,8.38568421 L24.056,8.35368421 C24.056,8.35368421 24.5503243,7.86357895 25.0446486,8.22231579 C25.0446486,8.22231579 25.5071351,8.61305263 24.7832432,8.84378947 C24.7832432,8.84378947 24.8485946,9.04084211 24.2202162,8.97347368 C24.2202162,8.97347368 23.7627568,9.66063158 23.3321081,9.10484211 C23.3321081,9.10484211 23.069027,8.87578947 23.002,9.36589474 C23.002,9.36589474 22.872973,9.88968421 23.2667568,9.88968421 C23.2667568,9.88968421 23.7627568,10.0867368 23.5951892,10.2164211 C23.5951892,10.2164211 24.1213514,10.3141053 24.1565405,10.4774737 C24.1565405,10.4774737 25.0798378,10.6728421 25.3764324,10.3797895 C25.3764324,10.3797895 26.0383243,9.75831579 26.3667568,10.0210526 C26.3667568,10.0210526 26.6951892,10.3477895 25.7400541,10.7402105 C25.7400541,10.7402105 25.6747027,11.0012632 24.980973,11.0012632 C24.980973,11.0012632 24.5201622,11.0669474 24.4548108,11.1326316 C24.4548108,11.1326316 24.2218919,11.4273684 24.2218919,11.6227368 C24.2218919,11.6227368 24.1582162,12.1448421 23.3672973,11.7541053 C22.5747027,11.3616842 23.3321081,11.6564211 23.3321081,11.6564211 C23.3321081,11.6564211 22.3099459,11.9174737 22.8059459,12.5709474 L24.0258378,12.6349474 C24.0258378,12.6349474 24.5184865,12.6686316 24.4196216,13.1250526 C24.4196216,13.1250526 24.484973,13.6151579 24.3525946,13.8105263 C24.3525946,13.8105263 24.4196216,14.3343158 24.7497297,14.2686316 C24.7497297,14.2686316 25.673027,14.3343158 25.606,14.6273684 C25.606,14.6273684 25.7065405,15.1831579 26.0014595,15.3785263 C26.0014595,15.3785263 26.3650811,16.8151579 24.9792973,16.5541053 C24.9792973,16.5541053 24.1213514,16.5204211 23.9906486,15.2808421 C23.9906486,15.2808421 23.6605405,14.528 23.4628108,14.6913684 C23.4628108,14.6913684 23.3974595,15.0837895 23.5616757,15.2808421 C23.5616757,15.2808421 23.6957297,15.6715789 23.1327027,15.4105263 C23.1327027,15.4105263 22.573027,15.2471579 22.573027,15.4762105 L22.6065405,17.1755789 C22.6065405,17.1755789 23.4644865,17.3069474 23.6605405,17.5023158 C23.6605405,17.5023158 24.9474595,17.4703158 24.8821081,18.2214737 C24.8821081,18.2214737 25.1451892,18.5802105 25.5088108,18.2551579 C25.5088108,18.2551579 26.0701622,17.8627368 26.4991351,18.4842105 C26.4991351,18.4842105 27.0588108,18.6475789 27.0588108,18.4842105 C27.0588108,18.4842105 27.5548108,18.0244211 27.7207027,18.8109474 C27.7207027,18.8109474 27.6536757,19.2673684 27.8514054,19.3650526 C27.8514054,19.3650526 28.0474595,20.0522105 27.1593514,20.1498947 C27.1593514,20.1498947 27.1593514,19.9208421 26.8962703,19.9865263 C26.8962703,19.9865263 26.7622162,19.4964211 26.5008108,19.6597895 C26.5008108,19.6597895 26.3349189,19.8888421 26.0048108,19.8888421 C26.0048108,19.8888421 25.0815135,19.9865263 24.9172973,19.8231579 C24.9172973,19.8231579 24.2570811,19.6261053 24.3241081,19.4964211 C24.3894595,19.3650526 24.2570811,19.3987368 24.2570811,19.3987368 C24.2570811,19.3987368 23.7309189,19.4644211 23.8632973,19.7254737 C23.8632973,19.7254737 23.0707027,20.1498947 23.8632973,20.0842105 C23.8632973,20.0842105 24.4564865,20.3452632 24.422973,20.608 C24.422973,20.608 25.2809189,20.9027368 25.1485405,21.0324211 C25.1485405,21.0324211 25.972973,21.0981053 25.544,22.5347368 C25.544,22.5347368 25.2474054,24.0370526 24.5218378,23.6463158 C24.5218378,23.6463158 23.6337297,24.1027368 23.1695676,23.6783158 C23.1695676,23.6783158 22.8076216,23.744 22.8076216,23.8416842 C22.8076216,23.8416842 23.368973,24.2661053 23.2349189,24.3974737 C23.2349189,24.3974737 23.7979459,24.4951579 23.8968108,24.2661053 C23.8968108,24.2661053 24.1950811,23.8753684 24.5871892,23.8753684 C24.5871892,23.8753684 25.3797838,23.5806316 25.7098919,24.2021053 C25.7098919,24.2021053 25.972973,24.3334737 26.0064865,25.0509474 C26.0064865,25.0509474 26.5996757,25.5747368 26.0064865,25.8021053 L25.8405946,26.0951579 C25.8405946,26.0951579 26.5024865,25.8677895 26.5996757,26.6509474 C26.5996757,26.6509474 27.161027,26.88 26.6985405,27.5974737 L26.3701081,27.6631579 C26.3701081,27.6631579 26.2695676,28.1195789 25.2490811,27.4997895 C25.2490811,27.4997895 25.115027,27.1730526 24.918973,27.3027368 C24.918973,27.3027368 24.6558919,26.976 24.3911351,26.912 C24.3911351,26.912 24.061027,26.6829474 24.061027,27.1073684 C24.061027,27.1073684 24.3576216,27.4661053 23.5348649,27.4997895 C23.5348649,27.4997895 23.8314595,27.8905263 23.6655676,28.0218947 C23.6655676,28.0218947 24.3274595,29.1334737 24.8201081,29.0357895 C24.8201081,29.0357895 25.5456757,29.2328421 25.5456757,30.1153684 C25.5456757,30.1153684 26.107027,30.9322105 25.8422703,31.2252632 C25.8422703,31.2252632 26.2058919,31.6176842 25.8422703,31.8787368 C25.8422703,31.8787368 25.7769189,32.4345263 25.2490811,31.8450526 L24.061027,31.8113684 C24.061027,31.8113684 24.3257838,32.1381053 24.3911351,32.3671579 C24.3911351,32.3671579 25.1485405,32.6938947 25.1820541,33.3170526 C25.1820541,33.3170526 25.115027,33.8071579 24.6558919,33.7414737 C24.6558919,33.7414737 24.2252432,34.2972632 23.9973514,34.2652632 C23.9973514,34.2652632 24.4916757,34.624 24.6558919,34.5246316 C24.6558919,34.5246316 24.9843243,34.3612632 25.2172432,34.624 C25.2172432,34.624 25.9411351,34.3949474 26.0081622,35.0804211 C26.0081622,35.0804211 26.6683784,35.7995789 25.9411351,36.0943158 C25.9411351,36.0943158 25.5473514,36.16 25.5473514,36.2913684 C25.5473514,36.2913684 25.1837297,36.4210526 24.9524865,36.2256842 C24.9524865,36.2256842 24.4581622,36.2576842 24.3928108,36.0606316 C24.3928108,36.0606316 23.7342703,36.1263158 23.7342703,35.9612632 C23.7342703,35.9612632 23.4058378,35.8955789 23.4376757,35.7978947 C23.4376757,35.7978947 23.1394054,35.7978947 23.3052973,36.0926316 C23.3052973,36.0926316 23.4711892,36.0926316 23.503027,36.2576842 C23.503027,36.2576842 23.932,36.192 23.932,36.3873684 C23.932,36.3873684 24.4581622,36.4850526 24.4263243,36.6821053 C24.4263243,36.6821053 25.0195135,36.6484211 24.986,36.8454737 C24.986,36.8454737 25.2507568,36.9094737 25.1837297,37.1402105 C25.1837297,37.1402105 25.6127027,37.3355789 25.5808649,37.8896842 C25.5808649,37.8896842 26.107027,38.0547368 26.0416757,38.3797895 C26.0416757,38.3797895 26.1723784,38.9035789 25.3144324,38.7418947 L25.115027,38.5448421 L24.8536216,38.5111579 C24.8536216,38.5111579 24.1615676,38.0867368 24.2252432,37.9553684 C24.2939459,37.8256842 24.2604324,37.8576842 24.2604324,37.8576842 C24.2604324,37.8576842 23.503027,38.0867368 23.3052973,37.5629474 L23.1394054,37.792 L23.2985946,61.0846316 L22.1457297,60.6922105 Z" id="Shape"></path>
            </g>
        </g>
    </g>
</svg>