
<svg width="119px" height="139px" viewBox="0 0 119 139" version="1.1" xmlns="http://www.w3.org/2000/svg" xmlns:xlink="http://www.w3.org/1999/xlink">
    <g id="Landing" stroke="none" stroke-width="1" fill="none" fill-rule="evenodd">
        <g id="Artboard" transform="translate(-1183.000000, -460.000000)">
            <g id="Group-35" transform="translate(985.000000, 358.000000)">
                <path d="M312.04133,171.499831 C312.04133,213.305052 264.368337,233.2394 257.5,235.871781 C250.63301,233.2394 202.95867,213.305052 202.95867,171.499831 L202.95867,126.095316 L257.5,107.104957 L312.04133,126.095316 L312.04133,171.499831 Z M315.338132,121.998404 L258.317467,102.139575 C257.788201,101.953475 257.211799,101.953475 256.682533,102.139575 L199.661868,121.998404 C198.670673,122.346331 198.005387,123.28088 198,124.332754 L198,171.499831 C198,219.883306 256.087277,240.663198 256.682533,240.861436 C257.211799,241.046188 257.788201,241.046188 258.317467,240.861436 C258.914069,240.663198 317,219.883306 317,171.499831 L317,124.332754 C316.99596,123.28088 316.330674,122.346331 315.338132,121.998404 L315.338132,121.998404 Z" id="Fill-27" fill="#FFD637"></path>
                <path d="M302.047343,133.251098 L302.047343,171.055308 C302.047343,203.239318 263.760197,220.297611 257.49933,222.847479 C251.238463,220.297611 212.952661,203.239318 212.952661,171.055308 L212.952661,133.251098 L257.49933,119.065441 L302.047343,133.251098 Z M256.757222,114.114986 L209.735514,128.967697 C208.662683,129.303913 207.951496,130.320633 208.002583,131.443597 L208.002583,171.055308 C208.002583,209.478156 254.653237,227.105327 256.633537,227.847694 C257.184741,228.050769 257.78972,228.050769 258.340924,227.847694 C260.345423,227.105327 306.997421,209.478156 306.997421,171.055308 L306.997421,131.443597 C307.048508,130.320633 306.335977,129.303913 305.264491,128.967697 L258.242783,114.114986 C257.760143,113.961671 257.241205,113.961671 256.757222,114.114986 L256.757222,114.114986 Z" id="Fill-28" fill="#FFD637"></path>
                <path d="M266.998778,151.999753 L266.998778,157.000123 L246.998506,157.000123 L246.998506,151.999753 C246.998506,146.47653 251.476057,141.999012 256.999321,141.999012 C262.521227,141.999012 266.998778,146.47653 266.998778,151.999753 L266.998778,151.999753 Z M236.999049,186.99963 L276.998235,186.99963 L276.998235,161.999136 L236.999049,161.999136 L236.999049,186.99963 Z M241.999457,151.999753 L241.999457,157.000123 L234.498846,157.000123 C233.119048,157.000123 232,158.119163 232,159.498951 L232,189.499815 C232,190.879602 233.119048,192 234.498846,192 L279.499796,192 C280.880952,192 282,190.879602 282,189.499815 L282,159.498951 C282,158.119163 280.880952,157.000123 279.499796,157.000123 L271.999185,157.000123 L271.999185,151.999753 C271.999185,143.715598 265.283537,137 256.999321,137 C248.715104,137 241.999457,143.715598 241.999457,151.999753 L241.999457,151.999753 Z" id="Fill-29" fill="#FFD637"></path>
                <path d="M257.5,169 C256.118957,169 255,170.118957 255,171.5 L255,176.498642 C255,177.881043 256.118957,179 257.5,179 C258.881043,179 260,177.881043 260,176.498642 L260,171.5 C260,170.118957 258.881043,169 257.5,169" id="Fill-30" fill="#060000"></path>
            </g>
        </g>
    </g>
</svg>